<svg id="Camada_1" data-name="Camada 1" xmlns="http://www.w3.org/2000/svg" viewBox="0 0 3000 1687.5"><defs><style>.cls-1{fill:#fb9300;}</style></defs><path class="cls-1" d="M569.6,264.74a364.55,364.55,0,0,0-87.35-12.68q-88-1.5-130.22,30.08Q311.76,312.35,311.81,367q0,31.69,15.1,52.53t43.89,36.67c19.2,10.58,43.38,20.09,72.61,28.73s63,17.77,101.38,27.35q74.79,20.13,135.88,43.08t103.58,57.56a236.8,236.8,0,0,1,65.45,82.67q23,48.21,23,118.61,0,82-31,140.23t-83.36,94.19q-52.49,36-120.79,52.53a608.07,608.07,0,0,1-143.09,16.59q-115.06,0-227.21-34.57T66,985.38l27.23-53.14a124.34,124.34,0,0,1,174.36-50l12.69,7.58q46,20.9,102.07,35.19a461.7,461.7,0,0,0,115.06,14.36q163.93,0,163.93-104.92,0-33-18.72-56.08c-12.49-15.29-30.21-28.78-53.21-40.22s-50.85-22-83.41-31.64-69-20.14-109.29-31.7q-73.4-20.14-127.25-43.83t-89.89-56.07q-36-32.36-54-74.78t-18-101.38q0-77.67,28.77-138.07T216.2,160q51.11-40.19,118.67-61.1T480.08,78.07q107.9,0,198.42,33.75t158.2,79.82L805.63,248.7a113.45,113.45,0,0,1-158.09,42.83A561.53,561.53,0,0,0,569.6,264.74Z"/><path class="cls-1" d="M886.08,1035a71.2,71.2,0,1,1,71.2,71.19A71.2,71.2,0,0,1,886.08,1035Z"/><path class="cls-1" d="M1926,1035a71.19,71.19,0,1,1,71.19,71.19A71.19,71.19,0,0,1,1926,1035Z"/><path class="cls-1" d="M2625.35,264.74A364.55,364.55,0,0,0,2538,252.06q-88-1.5-130.22,30.08-40.28,30.21-40.22,84.85,0,31.69,15.1,52.53t43.89,36.67c19.2,10.58,43.39,20.09,72.61,28.73s63,17.77,101.38,27.35q74.79,20.13,135.89,43.08T2840,612.91a236.8,236.8,0,0,1,65.45,82.67q23,48.21,23,118.61,0,82-31,140.23t-83.36,94.19q-52.49,36-120.78,52.53a608.16,608.16,0,0,1-143.1,16.59q-115.07,0-227.2-34.57T2121.7,985.38l27.24-53.14a124.33,124.33,0,0,1,174.35-50l12.69,7.58q46,20.9,102.07,35.19a461.72,461.72,0,0,0,115.07,14.36Q2717,939.32,2717,834.4q0-33-18.72-56.08c-12.49-15.29-30.21-28.78-53.21-40.22s-50.85-22-83.41-31.64-69-20.14-109.29-31.7q-73.39-20.14-127.25-43.83t-89.89-56.07q-36-32.36-53.95-74.78t-18-101.38q0-77.67,28.77-138.07T2272,160q51.11-40.19,118.68-61.1t145.2-20.82q107.9,0,198.42,33.75t158.21,79.82l-31.08,57.06a113.45,113.45,0,0,1-158.09,42.83A561.53,561.53,0,0,0,2625.35,264.74Z"/><path class="cls-1" d="M309.4,1540.21q-13.18,30.54-43.54,49.87T193,1609.41q-31.3,0-56.26-11.2a128.79,128.79,0,0,1-42.56-30.27A135,135,0,0,1,67,1523.68,147.24,147.24,0,0,1,57.43,1471a150.2,150.2,0,0,1,9.29-52.92,128.62,128.62,0,0,1,26.89-43.73,131.41,131.41,0,0,1,42.56-30q25-11.17,56.28-11.18,42.06,0,71.67,18.79t44.27,49.35l-38.17,12.13c-13.9,4.4-28.6.62-39.92-8.81a55.75,55.75,0,0,0-8-5.59,62.33,62.33,0,0,0-56.76-2,65.4,65.4,0,0,0-21.28,16.27,76.44,76.44,0,0,0-14.18,25.18,98.42,98.42,0,0,0-5.14,32.57,94.21,94.21,0,0,0,5.37,32.54A82.7,82.7,0,0,0,144.71,1529,63.56,63.56,0,0,0,166,1545.55a59.09,59.09,0,0,0,25.93,5.85,61.22,61.22,0,0,0,32.54-9.14,66.65,66.65,0,0,0,6.9-4.82c11.63-9.32,26.25-13.64,40.29-9.17Z"/><path class="cls-1" d="M585.53,1443.08v162.46H571.45c-23.14,0-41.88-19.33-42.23-43.3q-17,22.92-41.08,35a115.61,115.61,0,0,1-52.34,12.23,94.08,94.08,0,0,1-34.75-6.36A82.23,82.23,0,0,1,348.22,1525a76,76,0,0,1,8.08-34.85,78.88,78.88,0,0,1,22.5-27.2q14.43-11.22,34.5-17.57a145.58,145.58,0,0,1,44-6.36,186.85,186.85,0,0,1,33.53,3,133.38,133.38,0,0,1,29.1,8.67v-15.26q0-26.42-14.43-40.7t-42.8-14.23a109.45,109.45,0,0,0-40.1,7.63c-1.54.59-3.06,1.23-4.61,1.89a41.79,41.79,0,0,1-54.84-21.1l-.77-1.63q49.41-34.08,106.67-34.08,55.29,0,85.86,28.23T585.53,1443.08ZM520,1487.33a153.62,153.62,0,0,0-25.44-7.39,131.57,131.57,0,0,0-26.41-2.79q-25.46,0-41.59,11.93c-10.76,8-16.16,18.05-16.16,30.28a37,37,0,0,0,12.74,28.74q12.69,11.48,31.3,11.46a82.27,82.27,0,0,0,31.56-6.09q14.9-6.08,23.24-16.27,10.74-8.65,10.76-19.33Z"/><path class="cls-1" d="M802.08,1579.7a85.32,85.32,0,0,1-29.85,18,105.66,105.66,0,0,1-35.23,5.86,87,87,0,0,1-35-7.13,83.48,83.48,0,0,1-28.38-20.08,94.49,94.49,0,0,1-18.85-31,110.29,110.29,0,0,1-6.85-39.42v-268.6H671.2c23.38,0,42.31,19.7,42.31,44V1511c0,9.85,3.1,17.87,9.27,24.16a30,30,0,0,0,22,9.42c16.84-6.53,35.77.06,45.43,15.83Z"/><path class="cls-1" d="M1070.35,1443.08v162.46h-14.08c-23.14,0-41.88-19.33-42.23-43.3q-17,22.92-41.08,35a115.61,115.61,0,0,1-52.34,12.23,94.08,94.08,0,0,1-34.75-6.36A82.23,82.23,0,0,1,833,1525a76.1,76.1,0,0,1,8.08-34.85,78.88,78.88,0,0,1,22.5-27.2q14.43-11.22,34.5-17.57a145.59,145.59,0,0,1,44-6.36,186.82,186.82,0,0,1,33.52,3,133.38,133.38,0,0,1,29.1,8.67v-15.26q0-26.42-14.43-40.7t-42.8-14.23a109.36,109.36,0,0,0-40.09,7.63c-1.55.59-3.07,1.23-4.62,1.89a41.8,41.8,0,0,1-54.84-21.1l-.77-1.63q49.41-34.08,106.67-34.08,55.29,0,85.86,28.23T1070.35,1443.08Zm-65.58,44.25a153.34,153.34,0,0,0-25.44-7.39,131.57,131.57,0,0,0-26.41-2.79q-25.45,0-41.59,11.93c-10.76,8-16.16,18.05-16.16,30.28a37,37,0,0,0,12.74,28.74q12.69,11.48,31.3,11.46a82.27,82.27,0,0,0,31.56-6.09q14.9-6.08,23.24-16.27,10.75-8.65,10.76-19.33Z"/><path class="cls-1" d="M1547.22,1438v122.33c0,24.28-18.93,44-42.3,44h-23.27V1454.76q0-31.56-11.25-46.56t-31.81-15a48.35,48.35,0,0,0-18.59,4.09,72.75,72.75,0,0,0-18.6,11.46,97,97,0,0,0-16.13,17.54,69.84,69.84,0,0,0-10.76,22.39v111.66c0,24.28-18.93,44-42.3,44H1309V1454.76q0-31.56-11.26-46.56t-31.81-15a48.35,48.35,0,0,0-18.59,4.09,72.31,72.31,0,0,0-18.58,11.46,96.37,96.37,0,0,0-16.15,17.54,70,70,0,0,0-10.76,22.39v111.68c0,24.28-18.93,44-42.3,44h-23.26V1333.21h23.26c23.37,0,42.3,19.68,42.3,44v6.21c9.45-17.3,29.15-52.7,87.37-52.7,47.1,0,68.19,30,77.66,58.54,10.27-19.9,30.71-58.54,95.05-58.54C1545.23,1330.7,1547.22,1424.77,1547.22,1438Z"/><path class="cls-1" d="M1612.62,1281.42c0-18.82,14.68-34.09,32.78-34.09s32.78,15.27,32.78,34.09-14.68,34.08-32.78,34.08S1612.62,1300.25,1612.62,1281.42Zm0,56.36h65.56v222.57c0,24.28-18.93,44-42.3,44h-23.26Z"/><path class="cls-1" d="M2001.85,1233v372.57h-23.58c-20.11,0-36.85-14.6-41.16-34.13a92.54,92.54,0,0,1-29.46,25,105.75,105.75,0,0,1-50.65,13,112.81,112.81,0,0,1-48.93-10.68,115.38,115.38,0,0,1-38.65-29.52,139.3,139.3,0,0,1-25.19-44,158.91,158.91,0,0,1-9.06-54.15,164.66,164.66,0,0,1,8.57-53.92,142.28,142.28,0,0,1,23.73-43.76,109.9,109.9,0,0,1,36.2-29.51,100.24,100.24,0,0,1,46-10.66q28.36,0,51.11,14.22a101.39,101.39,0,0,1,35.47,37.12V1277c0-24.3,18.93-44,42.3-44Zm-65.63,273.7V1443.1a76.08,76.08,0,0,0-11-20.62,83.83,83.83,0,0,0-35.22-27.2,52.07,52.07,0,0,0-19.82-4.09,57.11,57.11,0,0,0-27.15,6.62,65.23,65.23,0,0,0-21.28,18A87.84,87.84,0,0,0,1808,1442a96.67,96.67,0,0,0-4.88,30.55,86.82,86.82,0,0,0,5.39,31,81.16,81.16,0,0,0,14.68,24.92,66,66,0,0,0,50.88,22.88,58.73,58.73,0,0,0,19.08-3.3,66,66,0,0,0,18.1-9.4,78.29,78.29,0,0,0,14.93-14.24,59.66,59.66,0,0,0,10-17.81Z"/><path class="cls-1" d="M2295.53,1443.08v162.46h-14.08c-23.14,0-41.88-19.33-42.23-43.3q-17,22.92-41.08,35a115.61,115.61,0,0,1-52.34,12.23,94.08,94.08,0,0,1-34.75-6.36,82.23,82.23,0,0,1-52.83-78.08,76.09,76.09,0,0,1,8.07-34.85,79,79,0,0,1,22.51-27.2q14.43-11.22,34.5-17.57a145.53,145.53,0,0,1,44-6.36,186.85,186.85,0,0,1,33.53,3,133.55,133.55,0,0,1,29.1,8.67v-15.26q0-26.42-14.43-40.7t-42.81-14.23a109.4,109.4,0,0,0-40.09,7.63c-1.54.59-3.07,1.23-4.61,1.89a41.79,41.79,0,0,1-54.84-21.1l-.77-1.63q49.39-34.08,106.66-34.08,55.29,0,85.87,28.23T2295.53,1443.08ZM2230,1487.33a153.62,153.62,0,0,0-25.44-7.39,131.57,131.57,0,0,0-26.41-2.79q-25.47,0-41.59,11.93c-10.76,8-16.15,18.05-16.15,30.28a37,37,0,0,0,12.73,28.74q12.69,11.48,31.3,11.46a82.19,82.19,0,0,0,31.55-6.09q14.91-6.08,23.25-16.27,10.74-8.65,10.76-19.33Z"/><path class="cls-1" d="M2616.67,1233v372.57h-23.59c-20.11,0-36.85-14.6-41.16-34.13a92.43,92.43,0,0,1-29.46,25,105.75,105.75,0,0,1-50.65,13,112.77,112.77,0,0,1-48.92-10.68,115.42,115.42,0,0,1-38.66-29.52,139.49,139.49,0,0,1-25.19-44,159.15,159.15,0,0,1-9.05-54.15,164.4,164.4,0,0,1,8.57-53.92,142.26,142.26,0,0,1,23.72-43.76,109.94,109.94,0,0,1,36.21-29.51,100.23,100.23,0,0,1,46-10.66q28.37,0,51.12,14.22a101.55,101.55,0,0,1,35.47,37.12V1277c0-24.3,18.92-44,42.3-44ZM2551,1506.67V1443.1a75.53,75.53,0,0,0-11-20.62,83.72,83.72,0,0,0-35.21-27.2,52.15,52.15,0,0,0-19.82-4.09,57.18,57.18,0,0,0-27.16,6.62,65.1,65.1,0,0,0-21.27,18,87.61,87.61,0,0,0-13.71,26.18,96.68,96.68,0,0,0-4.89,30.55,87,87,0,0,0,5.39,31,81.36,81.36,0,0,0,14.68,24.92,66,66,0,0,0,50.89,22.88,58.82,58.82,0,0,0,19.08-3.3,66,66,0,0,0,18.1-9.4,78.59,78.59,0,0,0,14.93-14.24,60.1,60.1,0,0,0,10-17.81Z"/><path class="cls-1" d="M2942.57,1470.06c0,4.42-.09,8.65-.23,12.71a51.15,51.15,0,0,1-1.23,9.9H2765.74c0-24.3,18.92-44,42.29-44h67q-2.45-30-21.27-48.06t-45.76-18.06a63.58,63.58,0,0,0-45,18.3,69.6,69.6,0,0,0-14.45,20.86c-3.75,8.14-7.43,21.24-7.43,49.59,0,26.49,5.23,41.45,9.14,49.59a69,69,0,0,0,15.16,20.84,65.72,65.72,0,0,0,21.05,13.24,66.8,66.8,0,0,0,24.47,4.57,73.28,73.28,0,0,0,36.94-9.92c11.53-6.58,19.45-15.28,23.7-26.21l56.29,16.32q-14.2,30.48-45.26,50.09t-74.1,19.59q-30.81,0-55.77-10.92a128.5,128.5,0,0,1-42.58-29.78,132.66,132.66,0,0,1-27.15-43.74,145.2,145.2,0,0,1-9.54-52.4,153.69,153.69,0,0,1,9.29-53.67,130.78,130.78,0,0,1,26.89-44.24,128.43,128.43,0,0,1,42.81-30.28q25.2-11.19,56.51-11.19t56,11.19a127.13,127.13,0,0,1,68.5,73.74A150.1,150.1,0,0,1,2942.57,1470.06Z"/><path class="cls-1" d="M1492.54,95.63c-275.18,0-498.26,231.85-498.26,517.84s223.08,517.84,498.26,517.84S1990.8,899.46,1990.8,613.47,1767.72,95.63,1492.54,95.63Zm-88,194.66A41.32,41.32,0,0,1,1445.88,249h70.5a41.32,41.32,0,0,1,41.33,41.33v455.6a41.33,41.33,0,0,1-41.33,41.33h-70.5a41.33,41.33,0,0,1-41.33-41.33Zm76.58,696.29a79.26,79.26,0,1,1,79.26-79.26A79.26,79.26,0,0,1,1481.13,986.58Z"/></svg>