<svg width="149" height="84" viewBox="0 0 149 84" fill="none" xmlns="http://www.w3.org/2000/svg">
<path d="M28.2895 13.1783C26.8742 12.7925 25.4174 12.5806 23.9511 12.5471C21.0373 12.4973 18.8815 12.9964 17.4835 14.0444C16.1501 15.0469 15.4843 16.455 15.4859 18.2685C15.4859 19.3202 15.7359 20.1918 16.2359 20.8834C16.7359 21.5749 17.4625 22.1834 18.4157 22.7087C19.3693 23.2354 20.5703 23.7087 22.022 24.1388C23.4738 24.5689 25.151 25.0234 27.0573 25.5003C29.5336 26.1683 31.7832 26.8831 33.806 27.6447C35.8287 28.4063 37.5435 29.3613 38.9504 30.5099C40.3288 31.6193 41.4399 33.0259 42.2011 34.625C42.9627 36.2249 43.3435 38.1929 43.3435 40.5292C43.3435 43.2503 42.8302 45.5771 41.8038 47.5095C40.7773 49.4419 39.3973 51.0047 37.6636 52.1981C35.9256 53.3927 33.9258 54.2643 31.6643 54.8129C29.3364 55.3694 26.9507 55.6466 24.5575 55.6387C20.7478 55.6387 16.9862 55.0651 13.2728 53.9179C9.55935 52.7707 6.22754 51.1481 3.27734 49.0501L4.62977 46.4049C5.01521 45.6521 5.55059 44.9864 6.20284 44.4491C6.85508 43.9118 7.61033 43.5142 8.42193 43.2809C9.23352 43.0477 10.0842 42.9837 10.9215 43.0929C11.7587 43.2022 12.5647 43.4823 13.2896 43.916L13.9199 44.2934C15.443 44.9869 17.1329 45.5708 18.9894 46.045C20.8567 46.523 22.7768 46.7632 24.704 46.7598C30.132 46.7598 32.8459 45.0189 32.8459 41.5372C32.8459 40.442 32.536 39.5115 31.9161 38.7456C31.2958 37.9845 30.4157 37.313 29.2734 36.7436C28.131 36.1741 26.7478 35.6484 25.1307 35.1686C23.5135 34.6887 21.7037 34.1661 19.7026 33.5906C17.2723 32.9223 15.1656 32.195 13.3825 31.4089C11.5995 30.6227 10.1113 29.6924 8.91799 28.6178C7.72599 27.544 6.83199 26.3032 6.23599 24.8955C5.63999 23.4877 5.34199 21.8056 5.34199 19.849C5.34199 17.2715 5.81829 14.9805 6.7709 12.9762C7.7235 10.9718 9.04563 9.30124 10.7373 7.96454C12.4296 6.63083 14.3942 5.61702 16.6312 4.92312C18.8682 4.22921 21.2722 3.88359 23.8433 3.88625C27.416 3.88625 30.701 4.44625 33.6982 5.56625C36.6954 6.68625 39.3145 8.01067 41.5555 9.53951L40.0123 12.3798C39.6481 13.0483 39.1528 13.6361 38.5561 14.1078C37.9594 14.5794 37.2737 14.9253 36.5402 15.1244C35.8067 15.3236 35.0405 15.372 34.2879 15.2667C33.5352 15.1614 32.8116 14.9046 32.1605 14.5118C30.9045 13.9729 29.6107 13.5271 28.2895 13.1783Z" fill="white"/>
<path d="M44.0078 51.52C44.0077 50.819 44.215 50.1337 44.6035 49.5508C44.992 48.9679 45.5443 48.5136 46.1905 48.2453C46.8366 47.9769 47.5477 47.9067 48.2337 48.0434C48.9197 48.1801 49.5498 48.5176 50.0444 49.0132C50.539 49.5089 50.8759 50.1404 51.0124 50.8279C51.1488 51.5154 51.0788 52.2281 50.8112 52.8757C50.5436 53.5233 50.0903 54.0769 49.5088 54.4664C48.9272 54.8558 48.2435 55.0637 47.5441 55.0637C46.6063 55.0637 45.7069 54.6903 45.0437 54.0258C44.3806 53.3612 44.0079 52.4599 44.0078 51.52Z" fill="white"/>
<path d="M95.6582 51.52C95.6582 50.8191 95.8656 50.134 96.2541 49.5512C96.6426 48.9685 97.1948 48.5143 97.8409 48.2461C98.487 47.9779 99.1979 47.9077 99.8838 48.0444C100.57 48.1811 101.2 48.5186 101.694 49.0142C102.189 49.5098 102.525 50.1413 102.662 50.8287C102.798 51.5161 102.728 52.2286 102.461 52.8761C102.193 53.5236 101.74 54.0771 101.158 54.4665C100.577 54.8558 99.8933 55.0637 99.194 55.0637C98.2562 55.0637 97.3569 54.6903 96.6938 54.0258C96.0307 53.3612 95.6582 52.4598 95.6582 51.52Z" fill="white"/>
<path d="M130.392 13.1783C128.976 12.7925 127.519 12.5806 126.053 12.5471C123.139 12.4973 120.984 12.9964 119.586 14.0444C118.252 15.0469 117.586 16.4548 117.588 18.268C117.588 19.3197 117.838 20.1913 118.338 20.8829C118.838 21.5744 119.565 22.1829 120.518 22.7082C121.471 23.2349 122.673 23.7083 124.124 24.1383C125.575 24.5684 127.253 25.0229 129.159 25.4998C131.636 26.1678 133.885 26.8826 135.909 27.6442C137.932 28.4058 139.646 29.3608 141.053 30.5094C142.431 31.6188 143.542 33.0254 144.303 34.6245C145.065 36.2244 145.446 38.1924 145.446 40.5287C145.446 43.2498 144.932 45.5766 143.906 47.509C142.879 49.4414 141.499 51.0042 139.766 52.1976C138.028 53.3922 136.028 54.2638 133.767 54.8124C131.439 55.3689 129.053 55.6461 126.66 55.6382C122.85 55.6382 119.088 55.0646 115.375 53.9174C111.663 52.7702 108.33 51.1478 105.377 49.0501L106.73 46.4049C107.115 45.6521 107.651 44.9864 108.303 44.4491C108.955 43.9118 109.71 43.5142 110.522 43.281C111.333 43.0477 112.184 42.9837 113.021 43.0929C113.858 43.2022 114.664 43.4823 115.389 43.916L116.02 44.2934C117.543 44.9869 119.232 45.5708 121.089 46.045C122.957 46.5231 124.877 46.7632 126.804 46.7598C132.23 46.7582 134.944 45.0165 134.944 41.5347C134.944 40.4396 134.634 39.509 134.014 38.7431C133.393 37.982 132.513 37.3105 131.371 36.7411C130.229 36.1716 128.845 35.646 127.228 35.1661C125.611 34.6862 123.801 34.1636 121.8 33.5881C119.37 32.9198 117.264 32.1925 115.48 31.4064C113.697 30.6202 112.209 29.6899 111.016 28.6153C109.824 27.5415 108.93 26.3007 108.336 24.893C107.742 23.4852 107.444 21.8031 107.442 19.8465C107.442 17.269 107.918 14.9781 108.871 12.9737C109.824 10.9693 111.147 9.29957 112.842 7.96453C114.534 6.63082 116.499 5.61701 118.736 4.92311C120.974 4.22921 123.377 3.88375 125.948 3.88674C129.521 3.88674 132.806 4.44674 135.803 5.56674C138.8 6.68674 141.419 8.01116 143.661 9.54L142.117 12.3803C141.753 13.0488 141.257 13.6366 140.661 14.1083C140.064 14.5799 139.378 14.9257 138.645 15.1249C137.911 15.3241 137.145 15.3725 136.392 15.2672C135.64 15.1619 134.916 14.9051 134.265 14.5123C133.008 13.9731 131.714 13.5272 130.392 13.1783Z" fill="white"/>
<path d="M15.3662 76.6683C14.9298 77.6818 14.209 78.5092 13.2037 79.1507C12.1985 79.7922 10.9922 80.1129 9.58501 80.1129C8.54863 80.1129 7.61722 79.9271 6.79076 79.5554C5.99088 79.2031 5.27148 78.6903 4.67695 78.0486C4.08892 77.4087 3.63046 76.6605 3.32701 75.8455C3.01 75.0078 2.8489 74.119 2.8517 73.2232C2.84627 72.3244 3.00258 71.4321 3.3131 70.5889C3.60781 69.7808 4.06204 69.0404 4.64864 68.4122C5.2468 67.778 5.96552 67.2703 6.76245 66.9188C7.59023 66.5481 8.52198 66.3626 9.55769 66.3623C10.9503 66.3623 12.1369 66.6741 13.1173 67.2976C14.0977 67.9212 14.8306 68.74 15.316 69.7542L13.4203 70.358C12.7299 70.577 11.9998 70.3888 11.4376 69.9194C11.3135 69.8152 11.1805 69.7221 11.0402 69.6412C10.6118 69.402 10.1328 69.2682 9.64267 69.2509C9.15255 69.2336 8.66533 69.3332 8.22116 69.5416C7.81688 69.7356 7.45703 70.0113 7.16426 70.3515C6.85212 70.7206 6.61309 71.146 6.45998 71.6049C6.28452 72.1271 6.19822 72.6752 6.2047 73.2262C6.19788 73.7776 6.28817 74.3259 6.47141 74.8459C6.6331 75.3066 6.87527 75.7347 7.18661 76.1103C7.47623 76.4575 7.83681 76.7385 8.24401 76.9341C8.64566 77.1279 9.08608 77.2275 9.53187 77.2253C10.1025 77.2287 10.6626 77.071 11.148 76.7703C11.2672 76.6977 11.3816 76.6175 11.4907 76.5304C12.0683 76.0665 12.7945 75.8514 13.4918 76.074L15.3662 76.6683Z" fill="white"/>
<path d="M29.0818 71.8333V79.9202H28.3825C27.2332 79.9202 26.3025 78.958 26.2851 77.7649C25.7222 78.5255 25.0421 79.1062 24.2448 79.5071C23.438 79.9119 22.5475 80.1204 21.6452 80.1159C21.0552 80.1205 20.4695 80.0131 19.9193 79.7993C19.1369 79.4992 18.4654 78.9651 17.996 78.2696C17.5267 77.5741 17.2821 76.7507 17.2954 75.9111C17.2896 75.3091 17.4272 74.7144 17.6967 74.1764C17.9624 73.6462 18.3445 73.1833 18.8142 72.8224C19.292 72.4501 19.8632 72.1586 20.5277 71.9478C21.2357 71.7308 21.9728 71.624 22.7131 71.6312C23.2715 71.6307 23.8289 71.6807 24.3784 71.7806C24.875 71.8688 25.3599 72.0136 25.8237 72.2121V71.4525C25.8237 70.5758 25.5848 69.9005 25.107 69.4266C24.6292 68.9527 23.9206 68.7166 22.9813 68.7182C22.2995 68.7186 21.6239 68.8474 20.9896 69.0981C20.9132 69.1274 20.8377 69.1593 20.7607 69.1921C20.2601 69.4116 19.6934 69.4244 19.1835 69.2277C18.6736 69.0311 18.2617 68.6409 18.037 68.1418L17.9987 68.0607C19.6347 66.9297 21.4007 66.3643 23.2967 66.3643C25.1274 66.3643 26.5488 66.8327 27.561 67.7695C28.5733 68.7063 29.0802 70.0609 29.0818 71.8333ZM25.8272 74.036C25.4174 73.8772 24.9946 73.7541 24.5637 73.6681C24.1322 73.5776 23.6928 73.5311 23.252 73.5293C22.409 73.5293 21.7204 73.7272 21.1863 74.1231C20.6519 74.5213 20.3837 75.0216 20.3837 75.6304C20.3779 75.9008 20.4316 76.1691 20.541 76.4164C20.6503 76.6637 20.8127 76.8837 21.0165 77.061C21.4366 77.442 21.9548 77.6321 22.571 77.6315C23.1083 77.6347 23.641 77.5317 24.1385 77.3283C24.6319 77.1265 25.0166 76.8566 25.2928 76.5184C25.6484 76.2314 25.8265 75.9106 25.8272 75.5562V74.036Z" fill="white"/>
<path d="M39.8366 78.634C39.4092 79.0317 38.9045 79.3367 38.354 79.53C37.7915 79.726 37.1998 79.8247 36.6043 79.8217C36.0066 79.8251 35.4147 79.7043 34.866 79.4668C34.3313 79.2364 33.8511 78.8958 33.4564 78.4672C33.0478 78.0183 32.7299 77.4943 32.5202 76.9241C32.2884 76.2963 32.1731 75.6313 32.18 74.9619V61.5916H33.3362C34.4974 61.5916 35.4376 62.5722 35.4376 63.7818V75.2142C35.4376 75.7046 35.5916 76.1038 35.898 76.4169C36.0383 76.566 36.2077 76.6846 36.3957 76.7653C36.5837 76.8459 36.7862 76.8869 36.9907 76.8858C37.8271 76.5607 38.7673 76.8888 39.247 77.6738L39.8366 78.634Z" fill="white"/>
<path d="M53.16 71.8333V79.9202H52.4607C51.3114 79.9202 50.3806 78.958 50.3633 77.7649C49.8004 78.5255 49.1203 79.1062 48.3229 79.5071C47.5162 79.9119 46.6256 80.1204 45.7234 80.1159C45.1333 80.1205 44.5477 80.0131 43.9975 79.7993C43.2146 79.4995 42.5428 78.9656 42.073 78.27C41.6033 77.5745 41.3584 76.7509 41.3716 75.9111C41.3659 75.3091 41.5035 74.7145 41.7729 74.1764C42.0386 73.6462 42.4206 73.1833 42.8904 72.8224C43.3682 72.4501 43.9394 72.1586 44.6039 71.9478C45.3119 71.7308 46.0489 71.624 46.7892 71.6312C47.3475 71.6307 47.9047 71.6807 48.4541 71.7806C48.9507 71.8688 49.4356 72.0136 49.8994 72.2121V71.4525C49.8994 70.5758 49.6605 69.9005 49.1827 69.4266C48.7049 68.9527 47.9963 68.7166 47.0569 68.7182C46.3753 68.7185 45.6999 68.8474 45.0658 69.0981C44.9888 69.1274 44.9133 69.1593 44.8363 69.1921C44.3358 69.4114 43.7691 69.4242 43.2593 69.2276C42.7494 69.0309 42.3374 68.6408 42.1126 68.1418L42.0744 68.0607C43.7104 66.9297 45.4764 66.3643 47.3723 66.3643C49.203 66.3643 50.6245 66.8327 51.6367 67.7695C52.6489 68.7063 53.1567 70.0609 53.16 71.8333ZM49.9028 74.036C49.493 73.8771 49.0703 73.754 48.6393 73.6681C48.2079 73.5776 47.7684 73.5311 47.3276 73.5293C46.4849 73.5293 45.7964 73.7272 45.262 74.1231C44.7276 74.5213 44.4594 75.0216 44.4594 75.6304C44.4536 75.9008 44.5073 76.1691 44.6166 76.4164C44.726 76.6637 44.8883 76.8837 45.0921 77.061C45.5123 77.442 46.0305 77.6321 46.6467 77.6315C47.184 77.6347 47.7167 77.5317 48.2142 77.3283C48.7075 77.1265 49.0923 76.8566 49.3684 76.5184C49.7244 76.2314 49.9025 75.9106 49.9028 75.5562V74.036Z" fill="white"/>
<path d="M76.8451 71.5804V77.6697C76.8451 78.8783 75.9049 79.8599 74.7442 79.8599H73.5884V72.4147C73.5884 71.3673 73.4022 70.5948 73.0297 70.097C72.6572 69.5992 72.1305 69.3503 71.4498 69.3503C71.1316 69.3562 70.8177 69.4254 70.5265 69.5539C70.1917 69.6964 69.8802 69.8887 69.6027 70.1244C69.3009 70.3813 69.0318 70.6746 68.8016 70.9975C68.5584 71.334 68.3774 71.7115 68.2671 72.112V77.6702C68.2671 78.8788 67.327 79.8604 66.1662 79.8604H65.0135V72.4147C65.0135 71.3673 64.8271 70.5948 64.4542 70.097C64.0814 69.5992 63.5548 69.3503 62.8743 69.3503C62.5561 69.3562 62.2423 69.4254 61.951 69.5539C61.6164 69.6962 61.3052 69.8885 61.0282 70.1244C60.7258 70.381 60.4564 70.6743 60.2261 70.9975C59.9831 71.3341 59.8021 71.7116 59.6917 72.112V77.6712C59.6917 78.8798 58.7515 79.8614 57.5908 79.8614H56.4355V66.3642H57.5908C58.7515 66.3642 59.6917 67.3438 59.6917 68.5544V68.8635C60.161 68.0024 61.1395 66.2402 64.0311 66.2402C66.3704 66.2402 67.4178 67.7336 67.8882 69.1542C68.3983 68.1636 69.4135 66.2402 72.609 66.2402C76.7462 66.2392 76.8451 70.9218 76.8451 71.5804Z" fill="white"/>
<path d="M80.0938 63.7863C80.0938 62.8495 80.8229 62.0894 81.7218 62.0894C82.6208 62.0894 83.3499 62.8495 83.3499 63.7863C83.3499 64.7231 82.6208 65.4827 81.7218 65.4827C80.8229 65.4827 80.0938 64.7236 80.0938 63.7863ZM80.0938 66.5918H83.3499V77.6708C83.3499 78.8794 82.4097 79.861 81.249 79.861H80.0938V66.5918Z" fill="white"/>
<path d="M99.4251 61.376V79.9217H98.254C97.2552 79.9217 96.4238 79.1949 96.2097 78.2228C95.8148 78.7361 95.3162 79.1602 94.7465 79.4672C93.9753 79.8906 93.1103 80.1131 92.2309 80.1143C91.3913 80.1218 90.5608 79.9402 89.8007 79.5827C89.0639 79.2351 88.4095 78.7342 87.8811 78.1133C87.3339 77.466 86.9098 76.7237 86.63 75.923C86.3251 75.0575 86.1728 74.1454 86.18 73.2276C86.1719 72.3154 86.3157 71.4083 86.6057 70.5436C86.8677 69.7537 87.2667 69.0163 87.7842 68.3653C88.2716 67.7522 88.8848 67.2512 89.5822 66.8963C90.2907 66.5396 91.074 66.3577 91.8669 66.3657C92.8059 66.3657 93.652 66.6016 94.4053 67.0735C95.141 67.5278 95.7477 68.1641 96.167 68.9213V63.5662C96.167 62.3566 97.1072 61.376 98.2679 61.376H99.4251ZM96.1655 75.0002V71.8343C96.0372 71.466 95.8529 71.1198 95.6192 70.8079C95.1684 70.2069 94.5641 69.7391 93.8699 69.4539C93.5582 69.3222 93.2238 69.253 92.8855 69.2503C92.4157 69.2466 91.9524 69.3598 91.5371 69.5799C91.1245 69.7987 90.7639 70.1044 90.4802 70.4759C90.1806 70.8686 89.9497 71.3094 89.7972 71.7795C89.6355 72.2701 89.5537 72.7836 89.5549 73.3002C89.5496 73.8267 89.6403 74.3496 89.8226 74.8434C89.9895 75.2973 90.2365 75.7174 90.5517 76.0838C90.8644 76.4471 91.2527 76.7373 91.6892 76.934C92.1258 77.1308 92.6001 77.2293 93.0787 77.2227C93.4015 77.2209 93.7217 77.1654 94.0264 77.0585C94.3484 76.9501 94.6517 76.7923 94.9253 76.5906C95.2026 76.3881 95.452 76.1498 95.6669 75.8817C95.882 75.617 96.05 75.3171 96.1635 74.9952L96.1655 75.0002Z" fill="white"/>
<path d="M114.012 71.8333V79.9202H113.312C112.163 79.9202 111.232 78.958 111.215 77.7648C110.652 78.5254 109.972 79.1062 109.174 79.5071C108.368 79.9119 107.477 80.1204 106.575 80.1158C105.985 80.1205 105.399 80.0131 104.849 79.7993C104.067 79.4992 103.395 78.9654 102.926 78.2702C102.457 77.575 102.212 76.7519 102.225 75.9126C102.219 75.3106 102.357 74.716 102.626 74.1779C102.892 73.6478 103.274 73.1849 103.744 72.8239C104.222 72.4516 104.793 72.16 105.457 71.9493C106.165 71.7322 106.902 71.6254 107.643 71.6327C108.201 71.6322 108.759 71.6821 109.308 71.782C109.805 71.8704 110.29 72.0152 110.753 72.2136V71.454C110.753 70.5773 110.514 69.9019 110.037 69.4281C109.559 68.9542 108.85 68.7181 107.91 68.7197C107.229 68.72 106.553 68.8489 105.919 69.0995C105.843 69.1289 105.767 69.1607 105.69 69.1936C105.19 69.413 104.623 69.4258 104.113 69.2292C103.603 69.0326 103.191 68.6424 102.967 68.1433L102.928 68.0621C104.564 66.9312 106.33 66.3657 108.226 66.3657C110.057 66.3657 111.478 66.8341 112.491 67.7709C113.503 68.7078 114.01 70.0619 114.012 71.8333ZM110.757 74.036C110.347 73.8771 109.924 73.754 109.493 73.6681C109.062 73.5776 108.622 73.5311 108.182 73.5292C107.338 73.5292 106.65 73.7272 106.116 74.1231C105.582 74.5213 105.314 75.0216 105.314 75.6304C105.308 75.9007 105.362 76.1691 105.471 76.4163C105.58 76.6636 105.742 76.8837 105.946 77.061C106.366 77.4419 106.885 77.6321 107.501 77.6314C108.038 77.6347 108.57 77.5317 109.068 77.3283C109.561 77.1265 109.946 76.8566 110.222 76.5184C110.578 76.2313 110.756 75.9106 110.757 75.5562V74.036Z" fill="white"/>
<path d="M129.962 61.376V79.9217H128.791C127.792 79.9217 126.96 79.1949 126.746 78.2228C126.352 78.7362 125.853 79.1603 125.283 79.4672C124.512 79.8906 123.647 80.1131 122.768 80.1143C121.928 80.1218 121.098 79.9401 120.338 79.5827C119.601 79.2351 118.946 78.7342 118.418 78.1132C117.871 77.4659 117.447 76.7236 117.167 75.923C116.862 75.0574 116.71 74.1454 116.717 73.2276C116.709 72.3154 116.853 71.4082 117.143 70.5435C117.405 69.7537 117.804 69.0163 118.321 68.3653C118.808 67.7522 119.422 67.2512 120.119 66.8963C120.828 66.5396 121.611 66.3577 122.404 66.3657C123.343 66.3657 124.19 66.6016 124.943 67.0735C125.678 67.5281 126.285 68.1643 126.705 68.9213V63.5662C126.705 62.3566 127.644 61.376 128.806 61.376H129.962ZM126.701 74.9987V71.8343C126.573 71.4658 126.388 71.1195 126.154 70.8079C125.704 70.2067 125.1 69.7389 124.406 69.4539C124.094 69.3223 123.759 69.2531 123.421 69.2503C122.951 69.2466 122.488 69.3598 122.072 69.5799C121.66 69.7986 121.299 70.1043 121.016 70.4759C120.717 70.8685 120.487 71.3091 120.335 71.779C120.173 72.2696 120.091 72.7831 120.092 73.2997C120.087 73.8261 120.178 74.3491 120.36 74.8429C120.527 75.2967 120.774 75.7168 121.089 76.0833C121.402 76.4466 121.79 76.7369 122.227 76.9336C122.663 77.1304 123.138 77.2289 123.616 77.2222C123.939 77.2203 124.259 77.1648 124.564 77.058C124.886 76.9496 125.189 76.7918 125.463 76.59C125.74 76.3875 125.989 76.1491 126.204 75.8812C126.419 75.6163 126.587 75.3164 126.701 74.9947L126.701 74.9987Z" fill="white"/>
<path d="M146.149 73.1764C146.149 73.3964 146.144 73.6069 146.137 73.809C146.133 73.9749 146.112 74.14 146.076 74.3018H137.366C137.366 73.0922 138.306 72.1116 139.467 72.1116H142.794C142.713 71.1161 142.361 70.3186 141.738 69.7193C141.115 69.12 140.357 68.8203 139.465 68.8203C138.629 68.8155 137.825 69.1431 137.23 69.7312C136.929 70.0304 136.686 70.3823 136.512 70.7696C136.326 71.1748 136.143 71.8269 136.143 73.2381C136.143 74.5567 136.403 75.3014 136.597 75.7066C136.781 76.0967 137.036 76.4486 137.35 76.7439C137.654 77.0283 138.009 77.252 138.396 77.403C138.783 77.5545 139.195 77.6316 139.611 77.6305C140.255 77.6316 140.889 77.4611 141.446 77.1367C142.018 76.8091 142.412 76.3761 142.623 75.832L145.419 76.6444C144.948 77.6559 144.199 78.487 143.171 79.1377C142.142 79.7885 140.915 80.1135 139.49 80.1129C138.47 80.1129 137.547 79.9317 136.72 79.5693C135.922 79.2247 135.203 78.7202 134.606 78.0869C134.019 77.4564 133.561 76.7167 133.257 75.9096C132.94 75.0769 132.779 74.1926 132.783 73.3013C132.777 72.3903 132.934 71.4856 133.245 70.6297C133.539 69.8138 133.993 69.0651 134.58 68.4276C135.178 67.7839 135.902 67.2708 136.707 66.9203C137.541 66.549 138.476 66.3633 139.513 66.3633C140.55 66.3633 141.477 66.549 142.295 66.9203C143.081 67.2678 143.788 67.7726 144.373 68.4038C144.958 69.035 145.409 69.7792 145.697 70.5909C145.998 71.4192 146.151 72.2946 146.149 73.1764Z" fill="white"/>
<path d="M74.1297 4.76025C60.4625 4.76025 49.3828 16.3012 49.3828 30.5372C49.3828 44.7731 60.4625 56.3141 74.1297 56.3141C87.797 56.3141 98.8767 44.7731 98.8767 30.5372C98.8767 16.3012 87.797 4.76025 74.1297 4.76025ZM69.7591 14.45C69.7595 13.9046 69.976 13.3817 70.361 12.9962C70.7461 12.6108 71.2681 12.3944 71.8123 12.3947H75.3138C75.5834 12.3946 75.8503 12.4478 76.0994 12.5511C76.3485 12.6545 76.5748 12.806 76.7654 12.9971C76.9561 13.1882 77.1073 13.415 77.2104 13.6646C77.3135 13.9142 77.3666 14.1818 77.3665 14.452V37.1307C77.3665 37.6764 77.1502 38.1997 76.7653 38.5855C76.3803 38.9713 75.8582 39.1881 75.3138 39.1881H71.8123C71.2679 39.1881 70.7457 38.9713 70.3608 38.5855C69.9758 38.1997 69.7596 37.6764 69.7596 37.1307L69.7591 14.45ZM73.5625 49.1098C72.784 49.1098 72.0229 48.8784 71.3755 48.4448C70.7281 48.0113 70.2236 47.3951 69.9256 46.6742C69.6277 45.9533 69.5497 45.16 69.7016 44.3947C69.8535 43.6293 70.2284 42.9263 70.779 42.3746C71.3295 41.8228 72.0309 41.447 72.7945 41.2948C73.5582 41.1426 74.3497 41.2207 75.069 41.5193C75.7883 41.8179 76.4031 42.3236 76.8357 42.9724C77.2682 43.6213 77.4991 44.3841 77.4991 45.1644C77.4991 46.2107 77.0844 47.2141 76.3463 47.954C75.6082 48.6939 74.607 49.1096 73.563 49.1098H73.5625Z" fill="white"/>
</svg>
